# xmcd
#
# Track frame offsets:
#	150
#	17895
#	32325
#	46817
#	65902
#	89652
#	112830
#	134937
#	159265
#	176362
#
# Disc length: 2682 seconds
#
# Revision: 3
# Processed by: cddbd v1.5.2PL0 Copyright (c) Steve Scherf et al.
# Submitted via: EZCDAudioConverter 2.5.0.1
#
DISCID=810a780a
DTITLE=Duc Thanh - Dan Bau - Ngoi Tua Man Thuyen
DYEAR=2000
DGENRE=Vietnamese instrumental
TTITLE0=Ngoi tua man thuyen
TTITLE1=Trong com
TTITLE2=Ru con
TTITLE3=Hinh bong que nha
TTITLE4=Con thuong rau dang moc sau he
TTITLE5=Trang mo ben suoi
TTITLE6=Vi dam
TTITLE7=Trau cau
TTITLE8=Tieng xua
TTITLE9=Con thuyen khong ben
EXTD=
EXTT0=
EXTT1=
EXTT2=
EXTT3=
EXTT4=
EXTT5=
EXTT6=
EXTT7=
EXTT8=
EXTT9=
PLAYORDER=
